<svg xmlns="http://www.w3.org/2000/svg" width="16" height="16"><path d="M.541 0A.534.534 0 0 0 0 .543a.534.534 0 0 0 .541.525c7.954 0 14.39 6.437 14.39 14.391a.534.534 0 0 0 1.069 0C16 6.928 9.072 0 .541 0zm.012 4A.546.546 0 0 0 0 4.555a.546.546 0 0 0 .553.537c5.725 0 10.355 4.63 10.355 10.355a.546.546 0 0 0 1.092 0C12 9.132 6.868 4 .553 4zM.58 8.002a.572.572 0 0 0-.58.58.572.572 0 0 0 .58.563 6.266 6.266 0 0 1 6.275 6.275.572.572 0 0 0 1.145 0C8 11.329 4.671 8.002.58 8.002zM2 12c-1.1 0-2 .9-2 2s.9 2 2 2 2-.9 2-2-.9-2-2-2zm0 .8c.667 0 1.2.533 1.2 1.2 0 .668-.533 1.201-1.2 1.201-.667 0-1.2-.534-1.2-1.201s.533-1.2 1.2-1.2z" color="#000" font-family="sans-serif" font-weight="400" overflow="visible" style="line-height:normal;text-indent:0;text-align:start;text-decoration-line:none;text-decoration-style:solid;text-decoration-color:#000;text-transform:none;block-progression:tb;white-space:normal;isolation:auto;mix-blend-mode:normal;solid-color:#000;solid-opacity:1"/></svg>